<svg version="1.1" id="Layer_1" xmlns="http://www.w3.org/2000/svg" xmlns:xlink="http://www.w3.org/1999/xlink" x="0px" y="0px" viewBox="0 0 50 50" enable-background="new 0 0 50 50" xml:space="preserve"><g> <path fill="#639261" d="M10.686,23.156c0.007,0.03,0.026,0.042,0.04,0.058c0.699,0.768,1.144,1.662,1.325,2.685 c0.327,1.848-0.33,3.715-1.741,4.953c-0.761,0.668-1.641,1.086-2.637,1.261c-0.428,0.075-0.859,0.099-1.292,0.067 c-2.305-0.16-4.124-1.721-4.76-3.711c-0.182-0.569-0.274-1.152-0.255-1.748c0.046-1.5,0.612-2.772,1.702-3.803 c0.679-0.643,1.479-1.071,2.389-1.294c0.525-0.13,1.058-0.18,1.601-0.148c0.646,0.038,1.266,0.184,1.859,0.443 c0.014,0.006,0.027,0.01,0.039,0.015c0.015-0.011,0.004-0.019,0-0.026c-0.179-0.33-0.285-0.682-0.329-1.055 c-0.047-0.396-0.038-0.789,0.048-1.179c0.114-0.523,0.348-0.983,0.734-1.361c0.282-0.276,0.616-0.468,0.99-0.592 c0.246-0.082,0.499-0.124,0.757-0.139c0.255-0.016,0.51-0.011,0.766-0.006c0.325,0.006,0.647,0.037,0.964,0.114 c0.09,0.022,0.181,0.046,0.27,0.073c0.1,0.029,0.108,0.044,0.093,0.147c-0.025,0.18-0.048,0.359-0.076,0.539 c-0.01,0.065-0.026,0.13-0.046,0.193c-0.021,0.069-0.046,0.078-0.108,0.047c-0.341-0.167-0.704-0.258-1.077-0.309 c-0.136-0.019-0.274-0.038-0.412-0.027c-0.409,0.032-0.774,0.173-1.082,0.449c-0.342,0.308-0.534,0.699-0.607,1.149 c-0.067,0.415-0.05,0.828,0.073,1.231c0.12,0.392,0.334,0.72,0.677,0.954c0.222,0.151,0.466,0.238,0.729,0.286 c0.28,0.052,0.557,0.024,0.833-0.033c0.139-0.028,0.138-0.032,0.138-0.171c0-0.408,0-0.816,0-1.224c0-0.018-0.001-0.035,0-0.051 c0.003-0.035-0.012-0.05-0.047-0.049c-0.017,0-0.034,0-0.052,0c-0.341,0-0.683,0-1.024,0c-0.147,0-0.164-0.017-0.164-0.167 c0-0.149,0.004-0.299-0.002-0.45c-0.003-0.114,0.056-0.157,0.154-0.156c0.712,0.002,1.424,0.001,2.137,0.001 c0.154,0,0.179,0.024,0.187,0.178c0.001,0.029,0.002,0.059,0.002,0.088c0,0.74,0,1.479,0,2.219c0,0.029-0.002,0.058-0.002,0.088 c0,0.138-0.074,0.224-0.195,0.277c-0.135,0.061-0.277,0.095-0.421,0.125c-0.384,0.08-0.771,0.124-1.163,0.119 c-0.218-0.002-0.438,0.01-0.656-0.014c-0.096-0.01-0.19-0.021-0.285-0.039C10.736,23.161,10.712,23.159,10.686,23.156z M2.808,26.828c0,2.162,1.762,3.922,3.931,3.925c2.18,0.003,3.946-1.751,3.949-3.92c0.003-2.165-1.76-3.924-3.934-3.927 C4.575,22.904,2.809,24.66,2.808,26.828z"/> <path fill="#639261" d="M28.671,21.023c0-0.027,0-0.054,0-0.081c0-0.458-0.001-0.914,0.012-1.371 c0.015-0.45-0.005-0.899-0.007-1.348c0-0.143-0.002-0.285-0.005-0.428c0-0.008,0-0.015,0-0.022c0.007-0.1,0.021-0.117,0.12-0.118 c0.314-0.001,0.633,0,0.951,0c0.013,0,0.029,0.001,0.043,0.003c0.036,0.002,0.057,0.022,0.062,0.06 c0.002,0.024,0.002,0.049,0.002,0.074c0,1.723,0,3.445,0,5.167c0,0.142-0.014,0.157-0.154,0.157c-0.319,0-0.639-0.002-0.958,0.002 c-0.088,0.001-0.145-0.03-0.186-0.104c-0.137-0.237-0.275-0.471-0.412-0.707c-0.463-0.795-0.926-1.591-1.387-2.388 c-0.012-0.021-0.026-0.042-0.041-0.067c-0.027,0.035-0.029,0.071-0.035,0.106c-0.033,0.221-0.045,0.444-0.045,0.668 c-0.002,0.776,0,1.553,0,2.33c0,0.15-0.01,0.159-0.158,0.159c-0.293,0-0.584,0-0.877,0c-0.021,0-0.045,0-0.066-0.001 c-0.053-0.006-0.074-0.025-0.082-0.079c-0.004-0.026-0.005-0.054-0.005-0.081c0-1.708,0-3.415,0-5.123 c0-0.034,0.001-0.069,0.008-0.103c0.008-0.042,0.033-0.065,0.074-0.07c0.031-0.003,0.064-0.004,0.096-0.004 c0.311,0,0.62,0.003,0.93-0.002c0.104-0.002,0.164,0.034,0.217,0.124c0.615,1.064,1.234,2.127,1.855,3.189 c0.012,0.021,0.023,0.041,0.037,0.061C28.662,21.026,28.667,21.025,28.671,21.023z"/> <path fill="#639261" d="M29.365,26.855c0.043,0.021,0.086,0.04,0.127,0.061c0.356,0.188,0.576,0.484,0.66,0.875 c0.07,0.33,0.033,0.656-0.091,0.969c-0.125,0.316-0.354,0.536-0.655,0.688c-0.229,0.115-0.472,0.179-0.723,0.216 c-0.227,0.032-0.457,0.04-0.685,0.04c-0.427-0.002-0.854,0-1.283,0c-0.126,0-0.14-0.014-0.14-0.139c0-1.72,0-3.439,0-5.16 c0-0.002,0-0.005,0-0.007c0-0.126,0.019-0.145,0.145-0.145c0.52,0,1.043-0.001,1.562,0c0.23,0,0.461,0.02,0.686,0.073 c0.219,0.051,0.422,0.134,0.604,0.266c0.221,0.16,0.354,0.378,0.415,0.641c0.065,0.281,0.063,0.565-0.012,0.846 c-0.087,0.32-0.272,0.566-0.558,0.739C29.4,26.828,29.377,26.834,29.365,26.855z M27.765,28.1c0,0.238,0,0.477,0,0.715 c0,0.024,0.002,0.049,0,0.073c-0.002,0.028,0.01,0.038,0.037,0.039c0.227,0.005,0.452-0.007,0.671-0.065 c0.144-0.037,0.276-0.097,0.388-0.201c0.231-0.222,0.272-0.573,0.171-0.844c-0.083-0.221-0.249-0.361-0.465-0.439 c-0.242-0.087-0.492-0.113-0.747-0.107c-0.06,0-0.055,0.006-0.055,0.057C27.765,27.584,27.765,27.842,27.765,28.1z M27.778,25.75 c0,0.226,0,0.451,0,0.678c0,0.002,0.002,0.004,0,0.007c-0.003,0.038,0.013,0.051,0.052,0.05c0.103-0.005,0.205-0.006,0.308-0.025 c0.147-0.025,0.292-0.062,0.415-0.156c0.18-0.136,0.269-0.32,0.283-0.543c0.025-0.31-0.127-0.587-0.451-0.681 c-0.178-0.053-0.36-0.062-0.545-0.06c-0.06,0.001-0.062,0.001-0.062,0.061C27.778,25.302,27.778,25.526,27.778,25.75z"/> <path fill="#639261" d="M21.947,26.977c0-0.857,0-1.714,0-2.572c0-0.02-0.002-0.039,0-0.059c0.003-0.059,0.035-0.089,0.093-0.093 c0.011-0.001,0.023,0,0.037,0c0.616,0,1.231-0.002,1.85,0.001c0.313,0.002,0.62,0.055,0.906,0.192 c0.403,0.192,0.647,0.51,0.733,0.946c0.062,0.309,0.068,0.619-0.008,0.927c-0.104,0.423-0.351,0.733-0.732,0.941 c-0.007,0.004-0.017,0.009-0.025,0.014c-0.052,0.027-0.062,0.019-0.027,0.086c0.386,0.736,0.772,1.473,1.161,2.208 c0.06,0.112,0.019,0.134-0.086,0.134c-0.328,0.001-0.658,0-0.987,0.002c-0.089,0-0.144-0.035-0.185-0.116 c-0.345-0.67-0.692-1.338-1.036-2.009c-0.033-0.065-0.07-0.094-0.144-0.088c-0.102,0.008-0.202,0.003-0.302,0 c-0.035,0-0.051,0.011-0.047,0.047c0.002,0.02,0,0.039,0,0.059c0,0.648,0,1.297,0,1.945c0,0.145-0.015,0.161-0.159,0.161 c-0.298,0-0.595,0-0.893,0c-0.019,0-0.039,0.001-0.059-0.001c-0.06-0.006-0.083-0.027-0.091-0.086c-0.002-0.025,0-0.049,0-0.074 C21.947,28.687,21.947,27.832,21.947,26.977z M23.149,25.868c0,0.039,0,0.079,0,0.118c0,0.223,0,0.446,0,0.67 c0,0.092-0.008,0.08,0.084,0.082c0.058,0,0.113,0.001,0.17,0c0.191-0.006,0.375-0.033,0.553-0.111 c0.218-0.096,0.361-0.256,0.415-0.49c0.043-0.188,0.045-0.375,0.002-0.562c-0.041-0.176-0.13-0.321-0.282-0.424 c-0.119-0.081-0.252-0.122-0.394-0.132c-0.16-0.011-0.319-0.003-0.479-0.004c-0.073,0-0.069-0.007-0.069,0.066 C23.149,25.343,23.149,25.605,23.149,25.868z"/> <path fill="#639261" d="M17.198,20.717c0.209,0.429,0.404,0.858,0.62,1.276c0.131,0.249,0.28,0.485,0.418,0.728 c0.055,0.096,0.11,0.192,0.162,0.29c0.035,0.068,0.016,0.1-0.062,0.104c-0.041,0.003-0.083,0.001-0.125,0.001 c-0.279,0-0.56-0.005-0.84,0.002c-0.117,0.002-0.184-0.038-0.237-0.143c-0.22-0.441-0.449-0.879-0.679-1.315 c-0.093-0.18-0.197-0.356-0.322-0.518c-0.123-0.157-0.292-0.224-0.486-0.237c-0.035-0.003-0.052,0.007-0.048,0.044 c0.002,0.017,0,0.034,0,0.051c0,0.652,0,1.303,0,1.954c0,0.029,0,0.06-0.004,0.088c-0.009,0.049-0.029,0.066-0.079,0.072 c-0.018,0.001-0.034,0.001-0.051,0.001c-0.305,0-0.609,0-0.915,0c-0.019,0-0.039,0-0.059-0.002 c-0.039-0.004-0.062-0.028-0.067-0.066c-0.002-0.027-0.001-0.054-0.002-0.081c-0.006-0.619,0.028-1.238,0.035-1.857 c0.003-0.209-0.001-0.418-0.009-0.627c-0.032-0.898-0.026-1.798-0.026-2.697c0-0.087,0.024-0.115,0.106-0.115 c0.661,0.001,1.321-0.011,1.983,0.006c0.294,0.008,0.577,0.079,0.84,0.219c0.367,0.196,0.583,0.502,0.665,0.906 c0.064,0.309,0.068,0.62-0.006,0.928c-0.104,0.429-0.354,0.742-0.741,0.951C17.247,20.693,17.225,20.704,17.198,20.717z M15.599,19.286c0,0.27,0,0.54,0,0.81c0,0.055,0,0.056,0.056,0.056c0.09,0.001,0.182,0.002,0.273,0 c0.17-0.006,0.336-0.036,0.492-0.104c0.209-0.09,0.357-0.236,0.416-0.458c0.057-0.22,0.059-0.442-0.007-0.661 c-0.061-0.199-0.191-0.339-0.378-0.425c-0.109-0.05-0.226-0.071-0.344-0.074c-0.147-0.003-0.295,0-0.442-0.001 c-0.064,0-0.064-0.007-0.064,0.063C15.599,18.756,15.599,19.021,15.599,19.286z"/> <path fill="#639261" d="M37.681,27.557c-0.064,0.096-0.16,0.17-0.198,0.286c-0.029,0.085-0.035,0.173-0.041,0.261 c-0.037,0.485-0.027,0.973-0.027,1.459c0,0.126-0.014,0.14-0.139,0.14c-0.305,0-0.608,0-0.914,0c-0.02,0-0.039,0.001-0.059-0.001 c-0.051-0.006-0.068-0.023-0.078-0.073c-0.004-0.021-0.006-0.044-0.006-0.065c0-1.723,0-3.445,0-5.168c0-0.007,0-0.014,0-0.022 c0.004-0.098,0.025-0.121,0.125-0.121c0.317,0,0.634,0,0.951,0c0.018,0,0.033-0.001,0.051,0.002 c0.043,0.007,0.062,0.03,0.066,0.074c0.002,0.024,0.002,0.05,0.002,0.074c0,0.56,0,1.121,0,1.68c0,0.024,0,0.048,0,0.075 c0.033-0.013,0.043-0.037,0.057-0.055c0.472-0.576,0.941-1.153,1.408-1.732c0.054-0.066,0.109-0.093,0.195-0.092 c0.354,0.005,0.708,0.002,1.061,0.002c0.039,0,0.096-0.018,0.115,0.026c0.016,0.04-0.029,0.073-0.055,0.105 c-0.485,0.609-0.969,1.218-1.453,1.827c-0.092,0.116-0.184,0.231-0.275,0.347c-0.055,0.068-0.051,0.052-0.006,0.118 c0.274,0.406,0.552,0.812,0.828,1.218c0.373,0.549,0.744,1.097,1.117,1.646c0.021,0.029,0.057,0.059,0.039,0.098 c-0.02,0.04-0.066,0.027-0.102,0.027c-0.354,0-0.707-0.004-1.061,0.002c-0.105,0-0.172-0.039-0.226-0.121 c-0.254-0.377-0.509-0.754-0.765-1.129c-0.188-0.279-0.376-0.558-0.565-0.836C37.716,27.592,37.708,27.57,37.681,27.557z"/> <path fill="#639261" d="M14.963,27.844c0.111-0.301,0.22-0.598,0.33-0.894c0.316-0.856,0.632-1.712,0.947-2.568 c0.048-0.128,0.051-0.13,0.186-0.13c0.311,0,0.618,0,0.928,0c0.035,0,0.07-0.002,0.104,0.008c0.039,0.013,0.052,0.03,0.044,0.07 c-0.003,0.024-0.014,0.047-0.021,0.07c-0.575,1.535-1.149,3.069-1.723,4.604c-0.074,0.198-0.147,0.395-0.222,0.593 c-0.038,0.098-0.045,0.104-0.15,0.104c-0.314,0-0.629,0-0.943,0c-0.119,0-0.124-0.005-0.165-0.116 c-0.271-0.721-0.541-1.442-0.811-2.164c-0.376-1.006-0.753-2.012-1.129-3.018c-0.048-0.128-0.032-0.152,0.105-0.152 c0.326-0.001,0.654,0,0.98,0c0.094,0,0.099,0.005,0.132,0.095c0.349,0.951,0.695,1.903,1.046,2.853 c0.084,0.227,0.212,0.432,0.343,0.633C14.944,27.836,14.95,27.837,14.963,27.844z"/> <path fill="#639261" d="M18.11,26.961c0.016-0.154,0.014-0.31,0.009-0.464c-0.013-0.632-0.027-1.263-0.043-1.895 c-0.001-0.079-0.003-0.157-0.005-0.236c-0.002-0.087,0.01-0.101,0.098-0.111c0.027-0.003,0.054-0.003,0.08-0.003 c0.97,0,1.941,0,2.912,0c0.127,0,0.137,0.008,0.137,0.132c0,0.167,0,0.334,0,0.501c0,0.02,0,0.04-0.002,0.059 c-0.006,0.054-0.021,0.072-0.079,0.08c-0.025,0.004-0.052,0.003-0.08,0.004c-0.6,0-1.199,0-1.799,0c-0.016,0-0.029,0-0.044,0 c-0.06,0-0.06,0-0.06,0.06c0,0.007,0,0.015,0,0.022c0,0.436,0,0.87,0,1.305c0,0.018,0,0.035,0,0.052 c-0.002,0.021,0.007,0.032,0.029,0.032c0.019,0,0.039,0,0.06,0c0.326,0,0.653,0,0.979,0c0.154,0,0.173,0.02,0.173,0.174 c0,0.143,0,0.285,0,0.428c0,0.022,0,0.045-0.001,0.066c-0.006,0.081-0.032,0.107-0.113,0.117c-0.021,0.002-0.043,0.001-0.066,0.001 c-0.324,0-0.647-0.001-0.973-0.001c-0.02,0-0.039,0.001-0.059,0.001c-0.021,0-0.031,0.012-0.029,0.032c0,0.015,0,0.029,0,0.045 c0,0.496,0,0.992,0,1.488c0,0.012,0,0.025,0,0.037c-0.004,0.027,0.005,0.042,0.035,0.04c0.016-0.002,0.031-0.001,0.045-0.001 c0.313,0,0.629,0.002,0.943,0c0.168-0.001,0.334-0.025,0.5-0.037c0.16-0.012,0.32-0.027,0.478-0.039 c0.091-0.006,0.116,0.016,0.136,0.107c0.006,0.03,0.012,0.062,0.012,0.094c0,0.173,0,0.344,0,0.517 c-0.002,0.021,0,0.044-0.008,0.065c-0.013,0.05-0.035,0.07-0.088,0.074c-0.016,0.002-0.033,0-0.05,0c-0.992,0-1.986,0-2.979,0 c-0.039,0-0.078,0-0.117-0.006c-0.043-0.007-0.066-0.031-0.07-0.072c-0.003-0.039-0.006-0.078-0.006-0.117 c-0.005-0.412,0.013-0.821,0.021-1.231c0.006-0.347,0.018-0.692,0.026-1.039C18.112,27.148,18.11,27.055,18.11,26.961z"/> <path fill="#639261" d="M31.836,20.745c0-0.745,0-1.489,0-2.234c0-0.094,0.013-0.083-0.081-0.083c-0.415,0-0.831,0-1.246,0 c-0.013,0-0.028,0-0.042,0c-0.09-0.001-0.117-0.028-0.117-0.121c-0.002-0.135,0-0.27,0-0.406c0-0.042-0.002-0.083,0-0.125 c0-0.077,0.029-0.105,0.107-0.105c0.121-0.001,0.242-0.001,0.362-0.001c1.181,0,2.362,0,3.544,0c0.018,0,0.034-0.001,0.052,0 c0.056,0.005,0.085,0.034,0.088,0.089c0.002,0.022,0,0.044,0,0.066c0,0.155,0,0.31,0,0.464c0,0.02,0.002,0.04-0.002,0.059 c-0.005,0.051-0.029,0.073-0.082,0.077c-0.021,0.002-0.044,0.001-0.065,0.001c-0.415,0-0.831,0-1.246,0c-0.012,0-0.025,0-0.037,0 c-0.062,0-0.064,0-0.064,0.064c0,1.02-0.002,2.04,0.002,3.06c0.002,0.223,0.029,0.446,0.045,0.668 c0.018,0.26,0.039,0.52,0.057,0.78c0.006,0.093-0.014,0.114-0.107,0.114c-0.354,0.001-0.709,0.002-1.062,0.002 c-0.078,0-0.101-0.024-0.104-0.101c0-0.066,0-0.132,0-0.199C31.836,22.125,31.836,21.435,31.836,20.745z"/> <path fill="#639261" d="M19.586,23.102c-0.134,0-0.271,0-0.405,0c-0.034,0-0.063-0.007-0.09-0.024 c-0.041-0.024-0.061-0.066-0.047-0.111c0.012-0.043,0.031-0.083,0.055-0.121c0.161-0.271,0.324-0.543,0.487-0.813 c0.025-0.042,0.03-0.068-0.001-0.109c-0.222-0.311-0.374-0.654-0.451-1.03c-0.045-0.222-0.06-0.447-0.047-0.673 c0.035-0.596,0.25-1.124,0.636-1.58c0.24-0.284,0.526-0.512,0.855-0.684c0.337-0.175,0.696-0.277,1.072-0.313 c0.08-0.008,0.162-0.014,0.244-0.013c0.327,0.001,0.656,0,0.986,0c0.027,0,0.055-0.002,0.08,0.007 c0.051,0.017,0.082,0.054,0.085,0.107c0.01,0.077-0.018,0.146-0.053,0.21c-0.138,0.251-0.278,0.501-0.418,0.752 c-0.017,0.033-0.039,0.061-0.078,0.072c-0.025,0.008-0.05,0.008-0.078,0.002c-0.094-0.02-0.187-0.041-0.28-0.053 c-0.27-0.033-0.529-0.003-0.784,0.084c-0.384,0.132-0.688,0.372-0.901,0.719c-0.179,0.292-0.259,0.612-0.234,0.955 c0.035,0.452,0.224,0.827,0.565,1.125c0.08,0.07,0.092,0.116,0.037,0.212c-0.119,0.217-0.242,0.432-0.362,0.647 c-0.104,0.181-0.209,0.36-0.31,0.542c-0.035,0.061-0.084,0.087-0.15,0.087C19.861,23.102,19.724,23.102,19.586,23.102z"/> <path fill="#639261" d="M21.529,23.102c-0.205,0-0.408,0-0.612,0c-0.135,0-0.194-0.102-0.132-0.223 c0.029-0.059,0.064-0.115,0.097-0.173c0.12-0.211,0.238-0.423,0.357-0.635c0.053-0.094,0.113-0.122,0.219-0.094 c0.39,0.103,0.771,0.084,1.146-0.069c0.376-0.155,0.666-0.411,0.858-0.771c0.102-0.19,0.162-0.392,0.181-0.607 c0.041-0.504-0.117-0.935-0.468-1.297c-0.035-0.037-0.07-0.076-0.113-0.106c-0.049-0.036-0.062-0.105-0.041-0.164 c0.049-0.125,0.121-0.236,0.185-0.351c0.162-0.292,0.326-0.581,0.486-0.874c0.041-0.075,0.106-0.104,0.18-0.105 c0.272-0.003,0.545-0.002,0.818,0c0.089,0,0.128,0.062,0.102,0.149c-0.025,0.081-0.074,0.149-0.115,0.221 c-0.136,0.236-0.273,0.472-0.411,0.706c-0.023,0.042-0.023,0.07,0.005,0.111c0.238,0.329,0.394,0.692,0.462,1.093 c0.034,0.194,0.051,0.389,0.04,0.585c-0.033,0.585-0.232,1.107-0.604,1.562c-0.316,0.389-0.709,0.674-1.175,0.854 c-0.312,0.12-0.632,0.193-0.969,0.188C21.859,23.101,21.693,23.102,21.529,23.102z"/> <path fill="#639261" d="M30.763,26.977c0-0.85,0-1.7,0-2.55c0-0.015,0-0.029,0-0.044c0.003-0.103,0.028-0.13,0.132-0.13 c0.312,0,0.625,0.002,0.937-0.001c0.098-0.001,0.136,0.033,0.136,0.141c0,1.484,0,2.969,0,4.453c0,0.097,0,0.097,0.096,0.097 c0.57,0,1.137,0,1.704,0c0.016,0,0.028-0.002,0.044,0c0.086,0.002,0.111,0.023,0.111,0.107c0.004,0.186,0.004,0.369,0.003,0.555 c-0.003,0.068-0.034,0.095-0.104,0.098c-0.016,0.002-0.033,0.001-0.051,0.001c-0.951,0-1.903-0.001-2.854,0.001 c-0.137,0-0.154-0.045-0.154-0.154C30.766,28.691,30.763,27.834,30.763,26.977z"/> <path fill="#639261" d="M44.367,26.804c0.011-0.022,0.003-0.048,0.003-0.071c0.003-0.373,0.003-0.746,0.003-1.121 c0-0.019-0.003-0.039,0-0.059c0.001-0.062,0.012-0.075,0.071-0.075c0.219-0.001,0.437-0.001,0.657,0 c0.062,0,0.078,0.019,0.08,0.079c0.002,0.018,0,0.035,0,0.052c0,1.312,0,2.624,0,3.937c0,0.132-0.012,0.145-0.148,0.145 c-0.182,0-0.362,0-0.546,0c-0.04,0-0.084,0.004-0.109-0.043c-0.005-0.013-0.018-0.013-0.029-0.005 c-0.003,0.001-0.005,0.003-0.007,0.003c-0.174,0.089-0.357,0.117-0.551,0.104c-0.099-0.006-0.2,0.006-0.302-0.008 c-0.345-0.046-0.603-0.225-0.778-0.52c-0.128-0.215-0.189-0.452-0.216-0.699c-0.021-0.203-0.023-0.406,0.003-0.609 c0.037-0.305,0.124-0.592,0.326-0.831c0.236-0.278,0.542-0.396,0.902-0.378c0.037,0.002,0.072,0.002,0.109,0 c0.166-0.012,0.324,0.015,0.475,0.082C44.328,26.793,44.344,26.809,44.367,26.804z M43.314,28.234 c0.002,0.056,0.004,0.125,0.01,0.193c0.012,0.135,0.034,0.268,0.086,0.395c0.055,0.137,0.138,0.25,0.267,0.331 c0.106,0.067,0.206,0.069,0.313-0.002c0.129-0.088,0.221-0.204,0.274-0.347c0.149-0.389,0.144-0.782,0.017-1.175 c-0.037-0.112-0.102-0.208-0.197-0.28c-0.189-0.142-0.289-0.143-0.481,0.006c-0.101,0.078-0.16,0.189-0.204,0.309 C43.332,27.844,43.318,28.032,43.314,28.234z"/> <path fill="#639261" d="M35.558,26.979c0,0.851,0,1.701,0,2.551c0,0.021,0,0.044-0.002,0.065c-0.002,0.08-0.024,0.105-0.106,0.106 c-0.125,0.002-0.252,0.002-0.377,0.002c-0.197,0-0.393,0-0.588-0.001c-0.023,0-0.045,0.001-0.067-0.003 c-0.052-0.008-0.071-0.028-0.077-0.082c-0.002-0.023-0.002-0.049-0.002-0.072c0-1.714,0-3.426,0-5.138 c0-0.143,0.012-0.155,0.155-0.155c0.308,0,0.614,0,0.923,0c0.021,0,0.045-0.001,0.065,0.003c0.048,0.007,0.069,0.03,0.072,0.078 c0.004,0.027,0.002,0.054,0.002,0.081C35.558,25.269,35.558,26.123,35.558,26.979z"/> <path fill="#639261" d="M46.781,28.606c-0.029,0.015-0.041,0.038-0.059,0.055c-0.035,0.031-0.046,0.069-0.046,0.118 c0.002,0.252,0.002,0.506,0.002,0.758c0,0.019,0,0.035,0,0.053c-0.002,0.081-0.015,0.093-0.098,0.093 c-0.202,0.001-0.407,0.001-0.61,0c-0.086,0-0.098-0.013-0.098-0.1c0-1.329,0-2.658,0-3.987c0-0.088,0.016-0.104,0.102-0.104 c0.201,0,0.399,0,0.598,0c0.09,0,0.105,0.016,0.105,0.109c0,0.648,0,1.297,0,1.945c0,0.026-0.003,0.053,0.008,0.088 c0.023-0.025,0.043-0.043,0.061-0.062c0.205-0.22,0.412-0.438,0.613-0.659c0.056-0.063,0.116-0.093,0.202-0.091 c0.218,0.006,0.438,0.002,0.656,0.003c0.03,0,0.07-0.014,0.086,0.021c0.012,0.03-0.023,0.051-0.042,0.072 c-0.311,0.346-0.62,0.69-0.931,1.036c-0.018,0.021-0.039,0.038-0.051,0.065c0.128,0.182,0.255,0.365,0.382,0.548 c0.238,0.341,0.477,0.68,0.714,1.021c0.016,0.021,0.049,0.045,0.029,0.076c-0.014,0.025-0.048,0.017-0.074,0.017 c-0.233,0.001-0.466-0.001-0.699,0.001c-0.073,0.002-0.117-0.025-0.158-0.084c-0.212-0.31-0.429-0.617-0.643-0.925 C46.814,28.652,46.799,28.631,46.781,28.606z"/> <path fill="#639261" d="M21.978,19.058c0.343,0.399,0.68,0.791,1.027,1.195c-0.124,0-0.233,0-0.342,0c0,0.375,0,0.743,0,1.11 c0,0.015,0,0.03,0,0.044c-0.001,0.056-0.001,0.057-0.058,0.057c-0.452,0-0.905,0-1.357,0c-0.059,0-0.061-0.001-0.061-0.06 c0-0.352,0-0.703,0-1.054c0-0.087,0.01-0.08-0.077-0.08c-0.094,0-0.19,0-0.303,0C21.204,19.862,21.588,19.463,21.978,19.058z"/> <path fill="#639261" d="M41.526,29.707c-0.233,0.002-0.427-0.193-0.427-0.434c0-0.238,0.193-0.437,0.425-0.436 c0.232,0.001,0.421,0.193,0.425,0.432S41.76,29.707,41.526,29.707z"/></g><circle fill="#639261" cx="6.719" cy="26.758" r="2.927"/></svg>
